<svg width="30" height="30" viewBox="0 0 30 30" fill="none" xmlns="http://www.w3.org/2000/svg">
<g clip-path="url(#clip0_93_1215)">
<path d="M29.9707 8.82008C29.9004 7.22602 29.6427 6.13022 29.2733 5.18058C28.8924 4.17263 28.3064 3.27023 27.5386 2.52002C26.7884 1.75816 25.88 1.16613 24.8837 0.79117C23.9287 0.421957 22.8385 0.164095 21.2445 0.0938855C19.6385 0.0175816 19.1287 0 15.0557 0C10.9826 0 10.4728 0.0175816 8.87282 0.0879078C7.27881 0.158234 6.18296 0.416214 5.23361 0.785192C4.22537 1.16613 3.32296 1.75218 2.57276 2.52002C1.81089 3.27017 1.21915 4.17855 0.843905 5.17484C0.474692 6.13022 0.216888 7.22016 0.14662 8.8141C0.0703745 10.4201 0.0527344 10.9299 0.0527344 15.0029C0.0527344 19.076 0.0703745 19.5859 0.140642 21.1858C0.210968 22.7798 0.468949 23.8756 0.83822 24.8253C1.21915 25.8332 1.81089 26.7356 2.57276 27.4858C3.32296 28.2477 4.23134 28.8397 5.22763 29.2147C6.1829 29.5839 7.27284 29.8418 8.86713 29.912C10.4668 29.9825 10.9769 29.9999 15.05 29.9999C19.123 29.9999 19.6328 29.9825 21.2328 29.912C22.8268 29.8417 23.9227 29.584 24.872 29.2147C25.8691 28.8292 26.7746 28.2396 27.5306 27.4837C28.2865 26.7278 28.8762 25.8223 29.2617 24.8253C29.6307 23.87 29.8888 22.7798 29.959 21.1858C30.0294 19.5859 30.0469 19.076 30.0469 15.0029C30.0469 10.9299 30.041 10.42 29.9707 8.82008ZM27.2692 21.0686C27.2046 22.5337 26.9585 23.3249 26.7534 23.8523C26.2493 25.1592 25.212 26.1965 23.9051 26.7006C23.3776 26.9058 22.5807 27.1518 21.1213 27.2161C19.539 27.2867 19.0644 27.304 15.0616 27.304C11.0588 27.304 10.5783 27.2867 9.00169 27.2161C7.53656 27.1518 6.74539 26.9058 6.21794 26.7006C5.5676 26.4602 4.97563 26.0793 4.49507 25.5812C3.99692 25.0947 3.61599 24.5087 3.37559 23.8583C3.17047 23.3308 2.92439 22.5337 2.8601 21.0745C2.78954 19.4922 2.77219 19.0174 2.77219 15.0146C2.77219 11.0118 2.78954 10.5313 2.8601 8.95493C2.92439 7.4898 3.17047 6.69863 3.37559 6.17119C3.61599 5.52055 3.99692 4.9287 4.50104 4.44802C4.98723 3.94987 5.57329 3.56894 6.22392 3.32883C6.75137 3.12372 7.54852 2.87757 9.00767 2.81305C10.59 2.74272 11.0648 2.72514 15.0673 2.72514C19.0761 2.72514 19.5506 2.74272 21.1273 2.81305C22.5924 2.87763 23.3836 3.12366 23.911 3.32878C24.5614 3.56894 25.1534 3.94987 25.6339 4.44802C26.132 4.9345 26.513 5.52055 26.7534 6.17119C26.9585 6.69863 27.2046 7.49549 27.2691 8.95493C27.3394 10.5373 27.357 11.0118 27.357 15.0146C27.357 19.0174 27.3395 19.4862 27.2692 21.0686Z" fill="#DBC28C" fill-opacity="0.74902"/>
<path d="M15.0557 7.29644C10.8011 7.29644 7.34912 10.7482 7.34912 15.003C7.34912 19.2579 10.8011 22.7096 15.0557 22.7096C19.3104 22.7096 22.7623 19.2579 22.7623 15.003C22.7623 10.7482 19.3104 7.29644 15.0557 7.29644ZM15.0557 20.002C12.2955 20.002 10.0566 17.7634 10.0566 15.003C10.0566 12.2426 12.2955 10.004 15.0556 10.004C17.8161 10.004 20.0547 12.2426 20.0547 15.003C20.0547 17.7634 17.816 20.002 15.0557 20.002ZM24.8663 6.99169C24.8663 7.98528 24.0607 8.79087 23.0669 8.79087C22.0734 8.79087 21.2678 7.98528 21.2678 6.99169C21.2678 5.99798 22.0734 5.19263 23.067 5.19263C24.0607 5.19263 24.8663 5.99792 24.8663 6.99169Z" fill="#DBC28C" fill-opacity="0.74902"/>
</g>
<defs>
<clipPath id="clip0_93_1215">
<rect width="30" height="30" fill="white"/>
</clipPath>
</defs>
</svg>
