<svg xmlns="http://www.w3.org/2000/svg" version="1.1" xmlns:xlink="http://www.w3.org/1999/xlink" width="512" height="512" x="0" y="0" viewBox="0 0 479.997 479.997" style="enable-background:new 0 0 512 512" xml:space="preserve" class=""><g><path d="M399.998 79.997h-40v-72A8 8 0 0 0 349.742.325l-272 80c-.16 0-.28.16-.44.216a8.089 8.089 0 0 0-1.176.592 8.021 8.021 0 0 0-1.36.92c-.31.288-.599.598-.864.928a8.396 8.396 0 0 0-.92 1.368 8.26 8.26 0 0 0-.48 1.16 7.506 7.506 0 0 0-.352 1.736c0 .264-.152.488-.152.752v384a8 8 0 0 0 8 8h320a8 8 0 0 0 8-8v-384a8 8 0 0 0-8-8zm-56-61.312v61.312H135.55l208.448-61.312zm48 445.312h-304v-368h304v368z" fill="#8b8b8b" opacity="1" data-original="#000000" class=""></path><path d="M183.996 127.999a8 8 0 0 0-6.854 3.878l-17.144 28.568-17.144-28.568a8 8 0 0 0-14.857 4.12v64a8 8 0 0 0 16 0v-35.12l9.144 15.24a8.312 8.312 0 0 0 13.712 0l9.144-15.24v35.12a8 8 0 0 0 16 0v-64a7.998 7.998 0 0 0-8.001-7.998zM231.998 175.997a8 8 0 0 0 0-16h-16v-16h16a8 8 0 0 0 0-16h-24a8 8 0 0 0-8 8v64a8 8 0 0 0 8 8h24a8 8 0 0 0 0-16h-16v-16h16zM287.998 127.997a8 8 0 0 0-8 8v30.112l-16.8-33.688a8 8 0 0 0-15.2 3.576v64a8 8 0 0 0 16 0v-30.112l16.8 33.688a8 8 0 0 0 15.2-3.576v-64a8 8 0 0 0-8-8zM343.998 127.997a8 8 0 0 0-8 8v48a8 8 0 0 1-16 0v-48a8 8 0 0 0-16 0v48c0 13.255 10.745 24 24 24s24-10.745 24-24v-48a8 8 0 0 0-8-8zM367.998 279.997h-256a8 8 0 0 0 0 16h256a8 8 0 0 0 0-16zM367.998 327.997h-256a8 8 0 0 0 0 16h256a8 8 0 0 0 0-16zM367.998 375.997h-256a8 8 0 0 0 0 16h256a8 8 0 0 0 0-16z" fill="#8b8b8b" opacity="1" data-original="#000000" class=""></path></g></svg>